<svg xmlns="http://www.w3.org/2000/svg" viewBox="0 0 1600 1000" preserveAspectRatio="xMidYMax slice"><defs><filter id="mGrain" x="0" y="0" width="100%" height="100%"><feTurbulence type="fractalNoise" baseFrequency=".85" numOctaves="1" seed="3" result="g"/><feColorMatrix in="g" type="matrix" values="0 0 0 0 .5  0 0 0 0 .42  0 0 0 0 .3  0 0 0 0.05 0" result="gc"/><feComposite in="gc" in2="SourceGraphic" operator="in" result="gi"/><feMerge><feMergeNode in="SourceGraphic"/><feMergeNode in="gi"/></feMerge></filter></defs><g filter="url(#mGrain)"><defs>
    <linearGradient id="mSky" x1="0" y1="0" x2="0" y2="1"><stop offset="0" stop-color="#d2e3e8"/><stop offset=".75" stop-color="#f1f2eb"/></linearGradient>
    <radialGradient id="mSun"><stop offset="0" stop-color="#eed69f"/><stop offset=".45" stop-color="#ebcf94" stop-opacity=".85"/><stop offset="1" stop-color="#ebcf94" stop-opacity="0"/></radialGradient>
    <linearGradient id="mHaze" x1="0" y1="0" x2="0" y2="1"><stop offset="0" stop-color="#f1f2eb" stop-opacity="0"/><stop offset="1" stop-color="#f1f2eb" stop-opacity=".7"/></linearGradient>
    <linearGradient id="mMeadow" x1="0" y1="0" x2="0" y2="1"><stop offset="0" stop-color="#9bb389"/><stop offset="1" stop-color="#718f6a"/></linearGradient>
    <linearGradient id="mWater" x1="0" y1="0" x2="1" y2="1"><stop offset="0" stop-color="#c5dfe5"/><stop offset="1" stop-color="#94b8b0"/></linearGradient>
    <linearGradient id="mSea" x1="0" y1="0" x2="0" y2="1"><stop offset="0" stop-color="#9ccacb"/><stop offset="1" stop-color="#71ada3"/></linearGradient>
  </defs><rect width="1600" height="1000" fill="url(#mSky)"/><circle cx="990" cy="230" r="190" fill="url(#mSun)"/><circle cx="990" cy="230" r="58" fill="#eed69f"/><g transform="translate(330 250) scale(1.1)" opacity="0.9" fill="#fdfaf3"><ellipse cx="0" cy="0" rx="70" ry="22"/><ellipse cx="-28" cy="-14" rx="34" ry="26"/><ellipse cx="18" cy="-22" rx="40" ry="32"/><ellipse cx="52" cy="-6" rx="26" ry="18"/></g><g transform="translate(640 170) scale(0.8)" opacity="0.8" fill="#fdfaf3"><ellipse cx="0" cy="0" rx="70" ry="22"/><ellipse cx="-28" cy="-14" rx="34" ry="26"/><ellipse cx="18" cy="-22" rx="40" ry="32"/><ellipse cx="52" cy="-6" rx="26" ry="18"/></g><g transform="translate(1380 330) scale(0.75)" opacity="0.75" fill="#fdfaf3"><ellipse cx="0" cy="0" rx="70" ry="22"/><ellipse cx="-28" cy="-14" rx="34" ry="26"/><ellipse cx="18" cy="-22" rx="40" ry="32"/><ellipse cx="52" cy="-6" rx="26" ry="18"/></g><g fill="none" stroke="#505b4b" stroke-width="3" stroke-linecap="round" opacity=".5"><path d="M760,300 q10,-10 20,0 q10,-10 20,0"/><path d="M820,330 q8,-8 16,0 q8,-8 16,0"/><path d="M720,340 q7,-7 14,0 q7,-7 14,0"/></g><path d="M0,430 L150,300 L260,380 L420,230 L560,360 L700,270 L860,400 L1000,310 L1160,420 L1300,330 L1460,420 L1600,360 L1600,540 L0,540 Z" fill="#bbcac6"/><path d="M420,230 L380,268 L402,262 L420,282 L440,262 L462,270 Z M700,270 L668,300 L688,296 L704,312 L720,294 L736,300 Z M1000,310 L974,334 L992,330 L1004,344 L1018,330 L1030,336 Z" fill="#f8f9f7"/><rect y="300" width="1600" height="240" fill="url(#mHaze)"/><path d="M0,540 Q220,470 460,520 T920,500 T1380,490 T1600,500 L1600,660 L0,660 Z" fill="#abc09f"/><g transform="translate(20 522) scale(0.4)"><ellipse cx="0" cy="4" rx="22" ry="4.84" fill="#2a2016" opacity=".13"/><rect x="-4" y="-14" width="8" height="18" rx="2" fill="#5a573c"/><path d="M0,-86 L-22,-44 L-12,-44 L-30,-14 L30,-14 L12,-44 L22,-44 Z" fill="#607e5d"/><path d="M0,-86 L-22,-44 L-12,-44 L-30,-14 L0,-14 Z" fill="#87a27e" opacity=".55"/></g><g transform="translate(91 543.4898145958407) scale(0.4)"><ellipse cx="0" cy="4" rx="22" ry="4.84" fill="#2a2016" opacity=".13"/><rect x="-4" y="-14" width="8" height="18" rx="2" fill="#5a573c"/><path d="M0,-86 L-22,-44 L-12,-44 L-30,-14 L30,-14 L12,-44 L22,-44 Z" fill="#607e5d"/><path d="M0,-86 L-22,-44 L-12,-44 L-30,-14 L0,-14 Z" fill="#87a27e" opacity=".55"/></g><g transform="translate(162 529.2170192055005) scale(0.4)"><ellipse cx="0" cy="4" rx="22" ry="4.84" fill="#2a2016" opacity=".13"/><rect x="-4" y="-14" width="8" height="18" rx="2" fill="#5a573c"/><path d="M0,-86 L-22,-44 L-12,-44 L-30,-14 L30,-14 L12,-44 L22,-44 Z" fill="#607e5d"/><path d="M0,-86 L-22,-44 L-12,-44 L-30,-14 L0,-14 Z" fill="#87a27e" opacity=".55"/></g><g transform="translate(206 520.3712737714244) scale(0.4)"><ellipse cx="0" cy="4" rx="22" ry="4.84" fill="#2a2016" opacity=".13"/><rect x="-4" y="-14" width="8" height="18" rx="2" fill="#5a573c"/><path d="M0,-86 L-22,-44 L-12,-44 L-30,-14 L30,-14 L12,-44 L22,-44 Z" fill="#607e5d"/><path d="M0,-86 L-22,-44 L-12,-44 L-30,-14 L0,-14 Z" fill="#87a27e" opacity=".55"/></g><g transform="translate(277 509.63163481991785) scale(0.4)"><ellipse cx="0" cy="4" rx="22" ry="4.84" fill="#2a2016" opacity=".13"/><rect x="-4" y="-14" width="8" height="18" rx="2" fill="#5a573c"/><path d="M0,-86 L-22,-44 L-12,-44 L-30,-14 L30,-14 L12,-44 L22,-44 Z" fill="#607e5d"/><path d="M0,-86 L-22,-44 L-12,-44 L-30,-14 L0,-14 Z" fill="#87a27e" opacity=".55"/></g><g transform="translate(348 533.0116798332294) scale(0.4)"><ellipse cx="0" cy="4" rx="22" ry="4.84" fill="#2a2016" opacity=".13"/><rect x="-4" y="-14" width="8" height="18" rx="2" fill="#5a573c"/><path d="M0,-86 L-22,-44 L-12,-44 L-30,-14 L30,-14 L12,-44 L22,-44 Z" fill="#607e5d"/><path d="M0,-86 L-22,-44 L-12,-44 L-30,-14 L0,-14 Z" fill="#87a27e" opacity=".55"/></g><g transform="translate(392 535.9796068352445) scale(0.4)"><ellipse cx="0" cy="4" rx="22" ry="4.84" fill="#2a2016" opacity=".13"/><rect x="-4" y="-14" width="8" height="18" rx="2" fill="#5a573c"/><path d="M0,-86 L-22,-44 L-12,-44 L-30,-14 L30,-14 L12,-44 L22,-44 Z" fill="#607e5d"/><path d="M0,-86 L-22,-44 L-12,-44 L-30,-14 L0,-14 Z" fill="#87a27e" opacity=".55"/></g><g transform="translate(463 534.4673770728909) scale(0.4)"><ellipse cx="0" cy="4" rx="22" ry="4.84" fill="#2a2016" opacity=".13"/><rect x="-4" y="-14" width="8" height="18" rx="2" fill="#5a573c"/><path d="M0,-86 L-22,-44 L-12,-44 L-30,-14 L30,-14 L12,-44 L22,-44 Z" fill="#607e5d"/><path d="M0,-86 L-22,-44 L-12,-44 L-30,-14 L0,-14 Z" fill="#87a27e" opacity=".55"/></g><g transform="translate(534 510.41042943280087) scale(0.4)"><ellipse cx="0" cy="4" rx="22" ry="4.84" fill="#2a2016" opacity=".13"/><rect x="-4" y="-14" width="8" height="18" rx="2" fill="#5a573c"/><path d="M0,-86 L-22,-44 L-12,-44 L-30,-14 L30,-14 L12,-44 L22,-44 Z" fill="#607e5d"/><path d="M0,-86 L-22,-44 L-12,-44 L-30,-14 L0,-14 Z" fill="#87a27e" opacity=".55"/></g><g transform="translate(578 519.3322298251335) scale(0.4)"><ellipse cx="0" cy="4" rx="22" ry="4.84" fill="#2a2016" opacity=".13"/><rect x="-4" y="-14" width="8" height="18" rx="2" fill="#5a573c"/><path d="M0,-86 L-22,-44 L-12,-44 L-30,-14 L30,-14 L12,-44 L22,-44 Z" fill="#607e5d"/><path d="M0,-86 L-22,-44 L-12,-44 L-30,-14 L0,-14 Z" fill="#87a27e" opacity=".55"/></g><g transform="translate(649 527.882338515573) scale(0.4)"><ellipse cx="0" cy="4" rx="22" ry="4.84" fill="#2a2016" opacity=".13"/><rect x="-4" y="-14" width="8" height="18" rx="2" fill="#5a573c"/><path d="M0,-86 L-22,-44 L-12,-44 L-30,-14 L30,-14 L12,-44 L22,-44 Z" fill="#607e5d"/><path d="M0,-86 L-22,-44 L-12,-44 L-30,-14 L0,-14 Z" fill="#87a27e" opacity=".55"/></g><g transform="translate(720 543.8148074998446) scale(0.4)"><ellipse cx="0" cy="4" rx="22" ry="4.84" fill="#2a2016" opacity=".13"/><rect x="-4" y="-14" width="8" height="18" rx="2" fill="#5a573c"/><path d="M0,-86 L-22,-44 L-12,-44 L-30,-14 L30,-14 L12,-44 L22,-44 Z" fill="#607e5d"/><path d="M0,-86 L-22,-44 L-12,-44 L-30,-14 L0,-14 Z" fill="#87a27e" opacity=".55"/></g><g transform="translate(764 523.5085511321922) scale(0.4)"><ellipse cx="0" cy="4" rx="22" ry="4.84" fill="#2a2016" opacity=".13"/><rect x="-4" y="-14" width="8" height="18" rx="2" fill="#5a573c"/><path d="M0,-86 L-22,-44 L-12,-44 L-30,-14 L30,-14 L12,-44 L22,-44 Z" fill="#607e5d"/><path d="M0,-86 L-22,-44 L-12,-44 L-30,-14 L0,-14 Z" fill="#87a27e" opacity=".55"/></g><g transform="translate(835 516.9922638217188) scale(0.4)"><ellipse cx="0" cy="4" rx="22" ry="4.84" fill="#2a2016" opacity=".13"/><rect x="-4" y="-14" width="8" height="18" rx="2" fill="#5a573c"/><path d="M0,-86 L-22,-44 L-12,-44 L-30,-14 L30,-14 L12,-44 L22,-44 Z" fill="#607e5d"/><path d="M0,-86 L-22,-44 L-12,-44 L-30,-14 L0,-14 Z" fill="#87a27e" opacity=".55"/></g><g transform="translate(906 513.532340486312) scale(0.4)"><ellipse cx="0" cy="4" rx="22" ry="4.84" fill="#2a2016" opacity=".13"/><rect x="-4" y="-14" width="8" height="18" rx="2" fill="#5a573c"/><path d="M0,-86 L-22,-44 L-12,-44 L-30,-14 L30,-14 L12,-44 L22,-44 Z" fill="#607e5d"/><path d="M0,-86 L-22,-44 L-12,-44 L-30,-14 L0,-14 Z" fill="#87a27e" opacity=".55"/></g><g transform="translate(950 538.4775581760745) scale(0.4)"><ellipse cx="0" cy="4" rx="22" ry="4.84" fill="#2a2016" opacity=".13"/><rect x="-4" y="-14" width="8" height="18" rx="2" fill="#5a573c"/><path d="M0,-86 L-22,-44 L-12,-44 L-30,-14 L30,-14 L12,-44 L22,-44 Z" fill="#607e5d"/><path d="M0,-86 L-22,-44 L-12,-44 L-30,-14 L0,-14 Z" fill="#87a27e" opacity=".55"/></g><g transform="translate(1021 535.0031332770814) scale(0.4)"><ellipse cx="0" cy="4" rx="22" ry="4.84" fill="#2a2016" opacity=".13"/><rect x="-4" y="-14" width="8" height="18" rx="2" fill="#5a573c"/><path d="M0,-86 L-22,-44 L-12,-44 L-30,-14 L30,-14 L12,-44 L22,-44 Z" fill="#607e5d"/><path d="M0,-86 L-22,-44 L-12,-44 L-30,-14 L0,-14 Z" fill="#87a27e" opacity=".55"/></g><g transform="translate(1092 528.4790876640628) scale(0.4)"><ellipse cx="0" cy="4" rx="22" ry="4.84" fill="#2a2016" opacity=".13"/><rect x="-4" y="-14" width="8" height="18" rx="2" fill="#5a573c"/><path d="M0,-86 L-22,-44 L-12,-44 L-30,-14 L30,-14 L12,-44 L22,-44 Z" fill="#607e5d"/><path d="M0,-86 L-22,-44 L-12,-44 L-30,-14 L0,-14 Z" fill="#87a27e" opacity=".55"/></g><g transform="translate(1136 508.1831821863109) scale(0.4)"><ellipse cx="0" cy="4" rx="22" ry="4.84" fill="#2a2016" opacity=".13"/><rect x="-4" y="-14" width="8" height="18" rx="2" fill="#5a573c"/><path d="M0,-86 L-22,-44 L-12,-44 L-30,-14 L30,-14 L12,-44 L22,-44 Z" fill="#607e5d"/><path d="M0,-86 L-22,-44 L-12,-44 L-30,-14 L0,-14 Z" fill="#87a27e" opacity=".55"/></g><g transform="translate(1207 524.1289471749748) scale(0.4)"><ellipse cx="0" cy="4" rx="22" ry="4.84" fill="#2a2016" opacity=".13"/><rect x="-4" y="-14" width="8" height="18" rx="2" fill="#5a573c"/><path d="M0,-86 L-22,-44 L-12,-44 L-30,-14 L30,-14 L12,-44 L22,-44 Z" fill="#607e5d"/><path d="M0,-86 L-22,-44 L-12,-44 L-30,-14 L0,-14 Z" fill="#87a27e" opacity=".55"/></g><g transform="translate(1278 532.6758183067144) scale(0.4)"><ellipse cx="0" cy="4" rx="22" ry="4.84" fill="#2a2016" opacity=".13"/><rect x="-4" y="-14" width="8" height="18" rx="2" fill="#5a573c"/><path d="M0,-86 L-22,-44 L-12,-44 L-30,-14 L30,-14 L12,-44 L22,-44 Z" fill="#607e5d"/><path d="M0,-86 L-22,-44 L-12,-44 L-30,-14 L0,-14 Z" fill="#87a27e" opacity=".55"/></g><g transform="translate(1322 541.5825906083353) scale(0.4)"><ellipse cx="0" cy="4" rx="22" ry="4.84" fill="#2a2016" opacity=".13"/><rect x="-4" y="-14" width="8" height="18" rx="2" fill="#5a573c"/><path d="M0,-86 L-22,-44 L-12,-44 L-30,-14 L30,-14 L12,-44 L22,-44 Z" fill="#607e5d"/><path d="M0,-86 L-22,-44 L-12,-44 L-30,-14 L0,-14 Z" fill="#87a27e" opacity=".55"/></g><g transform="translate(1393 517.5208405336213) scale(0.4)"><ellipse cx="0" cy="4" rx="22" ry="4.84" fill="#2a2016" opacity=".13"/><rect x="-4" y="-14" width="8" height="18" rx="2" fill="#5a573c"/><path d="M0,-86 L-22,-44 L-12,-44 L-30,-14 L30,-14 L12,-44 L22,-44 Z" fill="#607e5d"/><path d="M0,-86 L-22,-44 L-12,-44 L-30,-14 L0,-14 Z" fill="#87a27e" opacity=".55"/></g><g transform="translate(1464 516.0210695707066) scale(0.4)"><ellipse cx="0" cy="4" rx="22" ry="4.84" fill="#2a2016" opacity=".13"/><rect x="-4" y="-14" width="8" height="18" rx="2" fill="#5a573c"/><path d="M0,-86 L-22,-44 L-12,-44 L-30,-14 L30,-14 L12,-44 L22,-44 Z" fill="#607e5d"/><path d="M0,-86 L-22,-44 L-12,-44 L-30,-14 L0,-14 Z" fill="#87a27e" opacity=".55"/></g><g transform="translate(1508 519.0004644358576) scale(0.4)"><ellipse cx="0" cy="4" rx="22" ry="4.84" fill="#2a2016" opacity=".13"/><rect x="-4" y="-14" width="8" height="18" rx="2" fill="#5a573c"/><path d="M0,-86 L-22,-44 L-12,-44 L-30,-14 L30,-14 L12,-44 L22,-44 Z" fill="#607e5d"/><path d="M0,-86 L-22,-44 L-12,-44 L-30,-14 L0,-14 Z" fill="#87a27e" opacity=".55"/></g><g transform="translate(1579 542.3741859296416) scale(0.4)"><ellipse cx="0" cy="4" rx="22" ry="4.84" fill="#2a2016" opacity=".13"/><rect x="-4" y="-14" width="8" height="18" rx="2" fill="#5a573c"/><path d="M0,-86 L-22,-44 L-12,-44 L-30,-14 L30,-14 L12,-44 L22,-44 Z" fill="#607e5d"/><path d="M0,-86 L-22,-44 L-12,-44 L-30,-14 L0,-14 Z" fill="#87a27e" opacity=".55"/></g><path d="M0,640 Q300,570 640,612 T1240,602 T1600,592 L1600,760 L0,760 Z" fill="#95af85"/><path d="M0,700 Q360,646 760,690 T1600,662 L1600,1000 L0,1000 Z" fill="url(#mMeadow)"/><ellipse cx="270" cy="652" rx="150" ry="34" fill="url(#mWater)" stroke="#fdfaf3" stroke-opacity=".6" stroke-width="3"/><path d="M300,684 Q340,770 520,800 Q700,830 760,905 Q790,960 775,1000" fill="none" stroke="#fdfaf3" stroke-opacity=".55" stroke-width="54" stroke-linecap="round"/><path d="M300,684 Q340,770 520,800 Q700,830 760,905 Q790,960 775,1000" fill="none" stroke="url(#mWater)" stroke-width="44" stroke-linecap="round"/><path d="M300,672 Q340,760 520,790" fill="none" stroke="#fdfaf3" stroke-opacity=".5" stroke-width="4" stroke-dasharray="18 22"/><g transform="translate(770 916) rotate(-8)"><rect stroke-opacity=".55" x="-48" y="-17" width="96" height="34" rx="4" fill="#b68666" stroke="#946e54" stroke-width="1.17"/><path d="M-32,-17 L-32,17 M-16,-17 L-16,17 M0,-17 L0,17 M16,-17 L16,17 M32,-17 L32,17" stroke="#866e52" stroke-width="2.4"/><path d="M-48,-17 L48,-17" stroke="#565238" stroke-width="5"/></g><g transform="translate(96 770)"><ellipse cx="0" cy="4" rx="48" ry="10.56" fill="#2a2016" opacity=".13"/><path stroke-opacity=".55" d="M-36,0 L36,0 L36,-44 L0,-72 L-36,-44 Z" fill="#b68666" stroke="#946e54" stroke-width="1.17" stroke-linejoin="round" stroke-linecap="round"/><path d="M-46,-40 L0,-80 L46,-40" fill="none" stroke="#835b47" stroke-width="12" stroke-linecap="round" stroke-linejoin="round"/><path stroke-opacity=".55" d="M-8,0 L-8,-26 L10,-26 L10,0 Z" fill="#565238" stroke="#4e4933" stroke-width="1.17" stroke-linejoin="round" stroke-linecap="round"/><path stroke-opacity=".55" d="M-28,-34 L-16,-34 L-16,-22 L-28,-22 Z" fill="#eed69f" stroke="#bca87d" stroke-width="1.17" stroke-linejoin="round" stroke-linecap="round"/><path stroke-opacity=".55" d="M14,-62 L24,-62 L24,-40 L14,-48 Z" fill="#866e52" stroke="#715d46" stroke-width="1.17" stroke-linejoin="round" stroke-linecap="round"/><g fill="#fdfaf3" opacity=".7"><circle cx="20" cy="-76" r="7"/><circle cx="28" cy="-92" r="9"/><circle cx="22" cy="-110" r="11"/></g></g><g transform="translate(1240 690) scale(0.9)"><ellipse cx="0" cy="4" rx="26" ry="5.72" fill="#2a2016" opacity=".13"/><rect x="-4" y="-22" width="8" height="26" rx="2" fill="#7b6349"/><circle cx="0" cy="-44" r="28" fill="#88a479"/><circle cx="-16" cy="-30" r="18" fill="#88a479"/><circle cx="16" cy="-30" r="18" fill="#88a479"/><circle cx="-8" cy="-54" r="11" fill="#fdfaf3" opacity=".12"/><path d="M-30,-30 Q-20,-12 0,-16 Q20,-12 30,-30 Q24,-18 0,-14 Q-24,-18 -30,-30 Z" fill="#60845d" opacity=".45"/></g><g transform="translate(1420 700) scale(1)"><ellipse cx="0" cy="4" rx="22" ry="4.84" fill="#2a2016" opacity=".13"/><rect x="-4" y="-14" width="8" height="18" rx="2" fill="#5a573c"/><path d="M0,-86 L-22,-44 L-12,-44 L-30,-14 L30,-14 L12,-44 L22,-44 Z" fill="#60845d"/><path d="M0,-86 L-22,-44 L-12,-44 L-30,-14 L0,-14 Z" fill="#88a479" opacity=".55"/></g><g transform="translate(1540 740) scale(1.1)"><ellipse cx="0" cy="4" rx="26" ry="5.72" fill="#2a2016" opacity=".13"/><rect x="-4" y="-22" width="8" height="26" rx="2" fill="#7b6349"/><circle cx="0" cy="-44" r="28" fill="#88a479"/><circle cx="-16" cy="-30" r="18" fill="#88a479"/><circle cx="16" cy="-30" r="18" fill="#88a479"/><circle cx="-8" cy="-54" r="11" fill="#fdfaf3" opacity=".12"/><path d="M-30,-30 Q-20,-12 0,-16 Q20,-12 30,-30 Q24,-18 0,-14 Q-24,-18 -30,-30 Z" fill="#60845d" opacity=".45"/></g><g transform="translate(40 880) scale(1.2)"><ellipse cx="0" cy="4" rx="26" ry="5.72" fill="#2a2016" opacity=".13"/><rect x="-4" y="-22" width="8" height="26" rx="2" fill="#7b6349"/><circle cx="0" cy="-44" r="28" fill="#88a479"/><circle cx="-16" cy="-30" r="18" fill="#88a479"/><circle cx="16" cy="-30" r="18" fill="#88a479"/><circle cx="-8" cy="-54" r="11" fill="#fdfaf3" opacity=".12"/><path d="M-30,-30 Q-20,-12 0,-16 Q20,-12 30,-30 Q24,-18 0,-14 Q-24,-18 -30,-30 Z" fill="#60845d" opacity=".45"/></g><g transform="translate(230 830) scale(0.95)"><ellipse cx="0" cy="4" rx="22" ry="4.84" fill="#2a2016" opacity=".13"/><rect x="-4" y="-14" width="8" height="18" rx="2" fill="#5a573c"/><path d="M0,-86 L-22,-44 L-12,-44 L-30,-14 L30,-14 L12,-44 L22,-44 Z" fill="#60845d"/><path d="M0,-86 L-22,-44 L-12,-44 L-30,-14 L0,-14 Z" fill="#88a479" opacity=".55"/></g><g transform="translate(620 1010) scale(1.05)"><ellipse cx="0" cy="4" rx="26" ry="5.72" fill="#2a2016" opacity=".13"/><rect x="-4" y="-22" width="8" height="26" rx="2" fill="#7b6349"/><circle cx="0" cy="-44" r="28" fill="#88a479"/><circle cx="-16" cy="-30" r="18" fill="#88a479"/><circle cx="16" cy="-30" r="18" fill="#88a479"/><circle cx="-8" cy="-54" r="11" fill="#fdfaf3" opacity=".12"/><path d="M-30,-30 Q-20,-12 0,-16 Q20,-12 30,-30 Q24,-18 0,-14 Q-24,-18 -30,-30 Z" fill="#60845d" opacity=".45"/></g><g transform="translate(960 1000) scale(1.15)"><ellipse cx="0" cy="4" rx="22" ry="4.84" fill="#2a2016" opacity=".13"/><rect x="-4" y="-14" width="8" height="18" rx="2" fill="#5a573c"/><path d="M0,-86 L-22,-44 L-12,-44 L-30,-14 L30,-14 L12,-44 L22,-44 Z" fill="#60845d"/><path d="M0,-86 L-22,-44 L-12,-44 L-30,-14 L0,-14 Z" fill="#88a479" opacity=".55"/></g><g transform="translate(1180 990) scale(1.1)"><ellipse cx="0" cy="4" rx="26" ry="5.72" fill="#2a2016" opacity=".13"/><rect x="-4" y="-22" width="8" height="26" rx="2" fill="#7b6349"/><circle cx="0" cy="-44" r="28" fill="#88a479"/><circle cx="-16" cy="-30" r="18" fill="#88a479"/><circle cx="16" cy="-30" r="18" fill="#88a479"/><circle cx="-8" cy="-54" r="11" fill="#fdfaf3" opacity=".12"/><path d="M-30,-30 Q-20,-12 0,-16 Q20,-12 30,-30 Q24,-18 0,-14 Q-24,-18 -30,-30 Z" fill="#60845d" opacity=".45"/></g><g transform="translate(1340 930) scale(1.2)"><ellipse cx="0" cy="4" rx="26" ry="5.72" fill="#2a2016" opacity=".13"/><rect x="-4" y="-22" width="8" height="26" rx="2" fill="#7b6349"/><circle cx="0" cy="-44" r="28" fill="#88a479"/><circle cx="-16" cy="-30" r="18" fill="#88a479"/><circle cx="16" cy="-30" r="18" fill="#88a479"/><circle cx="-8" cy="-54" r="11" fill="#fdfaf3" opacity=".12"/><path d="M-30,-30 Q-20,-12 0,-16 Q20,-12 30,-30 Q24,-18 0,-14 Q-24,-18 -30,-30 Z" fill="#60845d" opacity=".45"/></g><g transform="translate(1520 900) scale(1.1)"><ellipse cx="0" cy="4" rx="22" ry="4.84" fill="#2a2016" opacity=".13"/><rect x="-4" y="-14" width="8" height="18" rx="2" fill="#5a573c"/><path d="M0,-86 L-22,-44 L-12,-44 L-30,-14 L30,-14 L12,-44 L22,-44 Z" fill="#60845d"/><path d="M0,-86 L-22,-44 L-12,-44 L-30,-14 L0,-14 Z" fill="#88a479" opacity=".55"/></g><g transform="translate(1290 780) scale(0.9)"><ellipse cx="0" cy="4" rx="26" ry="5.72" fill="#2a2016" opacity=".13"/><rect x="-4" y="-22" width="8" height="26" rx="2" fill="#7b6349"/><circle cx="0" cy="-44" r="28" fill="#88a479"/><circle cx="-16" cy="-30" r="18" fill="#88a479"/><circle cx="16" cy="-30" r="18" fill="#88a479"/><circle cx="-8" cy="-54" r="11" fill="#fdfaf3" opacity=".12"/><path d="M-30,-30 Q-20,-12 0,-16 Q20,-12 30,-30 Q24,-18 0,-14 Q-24,-18 -30,-30 Z" fill="#60845d" opacity=".45"/></g><g transform="translate(860 790) scale(0.75)"><ellipse cx="0" cy="4" rx="26" ry="5.72" fill="#2a2016" opacity=".13"/><rect x="-4" y="-22" width="8" height="26" rx="2" fill="#7b6349"/><circle cx="0" cy="-44" r="28" fill="#88a479"/><circle cx="-16" cy="-30" r="18" fill="#88a479"/><circle cx="16" cy="-30" r="18" fill="#88a479"/><circle cx="-8" cy="-54" r="11" fill="#fdfaf3" opacity=".12"/><path d="M-30,-30 Q-20,-12 0,-16 Q20,-12 30,-30 Q24,-18 0,-14 Q-24,-18 -30,-30 Z" fill="#60845d" opacity=".45"/></g><g transform="translate(1460 620) scale(0.7)"><ellipse cx="0" cy="4" rx="22" ry="4.84" fill="#2a2016" opacity=".13"/><rect x="-4" y="-14" width="8" height="18" rx="2" fill="#5a573c"/><path d="M0,-86 L-22,-44 L-12,-44 L-30,-14 L30,-14 L12,-44 L22,-44 Z" fill="#60845d"/><path d="M0,-86 L-22,-44 L-12,-44 L-30,-14 L0,-14 Z" fill="#88a479" opacity=".55"/></g><g transform="translate(1120 960) scale(0.9)"><ellipse cx="0" cy="4" rx="26" ry="5.72" fill="#2a2016" opacity=".13"/><rect x="-4" y="-22" width="8" height="26" rx="2" fill="#7b6349"/><circle cx="0" cy="-44" r="28" fill="#88a479"/><circle cx="-16" cy="-30" r="18" fill="#88a479"/><circle cx="16" cy="-30" r="18" fill="#88a479"/><circle cx="-8" cy="-54" r="11" fill="#fdfaf3" opacity=".12"/><path d="M-30,-30 Q-20,-12 0,-16 Q20,-12 30,-30 Q24,-18 0,-14 Q-24,-18 -30,-30 Z" fill="#60845d" opacity=".45"/></g><circle cx="313" cy="846" r="4" fill="#d8a088" opacity=".95"/><circle cx="450" cy="899" r="4" fill="#e9ce8c" opacity=".95"/><circle cx="724" cy="755" r="4" fill="#d8a088" opacity=".95"/><circle cx="861" cy="808" r="4" fill="#e9ce8c" opacity=".95"/><circle cx="1135" cy="914" r="4" fill="#d8a088" opacity=".95"/><circle cx="1272" cy="967" r="4" fill="#e9ce8c" opacity=".95"/><circle cx="1409" cy="770" r="4" fill="#fdfaf3" opacity=".95"/><circle cx="1546" cy="823" r="4" fill="#d8a088" opacity=".95"/><circle cx="377" cy="982" r="4" fill="#d8a088" opacity=".95"/><circle cx="925" cy="944" r="4" fill="#e9ce8c" opacity=".95"/><circle cx="1336" cy="853" r="4" fill="#e9ce8c" opacity=".95"/><circle cx="1473" cy="906" r="4" fill="#fdfaf3" opacity=".95"/><circle cx="30" cy="959" r="4" fill="#d8a088" opacity=".95"/><circle cx="304" cy="815" r="4" fill="#fdfaf3" opacity=".95"/><circle cx="441" cy="868" r="4" fill="#d8a088" opacity=".95"/><circle cx="715" cy="974" r="4" fill="#fdfaf3" opacity=".95"/><circle cx="852" cy="777" r="4" fill="#d8a088" opacity=".95"/><circle cx="989" cy="830" r="4" fill="#e9ce8c" opacity=".95"/><circle cx="1126" cy="883" r="4" fill="#fdfaf3" opacity=".95"/><circle cx="1263" cy="936" r="4" fill="#d8a088" opacity=".95"/><circle cx="1400" cy="989" r="4" fill="#e9ce8c" opacity=".95"/><circle cx="1537" cy="792" r="4" fill="#fdfaf3" opacity=".95"/><circle cx="1053" cy="966" r="4" fill="#e9ce8c" opacity=".95"/><circle cx="1190" cy="769" r="4" fill="#fdfaf3" opacity=".95"/><circle cx="1327" cy="822" r="4" fill="#d8a088" opacity=".95"/><circle cx="1464" cy="875" r="4" fill="#e9ce8c" opacity=".95"/><circle cx="21" cy="928" r="4" fill="#fdfaf3" opacity=".95"/><circle cx="158" cy="981" r="4" fill="#d8a088" opacity=".95"/><circle cx="295" cy="784" r="4" fill="#e9ce8c" opacity=".95"/><circle cx="569" cy="890" r="4" fill="#d8a088" opacity=".95"/><circle cx="843" cy="746" r="4" fill="#fdfaf3" opacity=".95"/><circle cx="980" cy="799" r="4" fill="#d8a088" opacity=".95"/><circle cx="1254" cy="905" r="4" fill="#fdfaf3" opacity=".95"/><circle cx="1391" cy="958" r="4" fill="#d8a088" opacity=".95"/><circle cx="1528" cy="761" r="4" fill="#e9ce8c" opacity=".95"/><circle cx="222" cy="867" r="4" fill="#d8a088" opacity=".95"/><circle cx="770" cy="829" r="4" fill="#e9ce8c" opacity=".95"/><circle cx="1044" cy="935" r="4" fill="#d8a088" opacity=".95"/><circle cx="1181" cy="988" r="4" fill="#e9ce8c" opacity=".95"/><circle cx="1318" cy="791" r="4" fill="#fdfaf3" opacity=".95"/><circle cx="1455" cy="844" r="4" fill="#d8a088" opacity=".95"/><circle cx="12" cy="897" r="4" fill="#e9ce8c" opacity=".95"/><path d="M 100 945 Q 100 945 190 930 Q 280 915 375 930 Q 470 945 565 935 Q 660 925 770 915 Q 880 905 970 892.5 Q 1060 880 1115 845 Q 1170 810 1125 775 Q 1080 740 1005 726 Q 930 712 855 701 Q 780 690 710 675 Q 640 660 580 644 L 520 628" fill="none" stroke="#565238" stroke-width="32" stroke-linecap="round" opacity=".18"/><path d="M 100 945 Q 100 945 190 930 Q 280 915 375 930 Q 470 945 565 935 Q 660 925 770 915 Q 880 905 970 892.5 Q 1060 880 1115 845 Q 1170 810 1125 775 Q 1080 740 1005 726 Q 930 712 855 701 Q 780 690 710 675 Q 640 660 580 644 L 520 628" fill="none" stroke="#e6d3b2" stroke-width="22" stroke-linecap="round"/><path d="M 470 945 Q 470 945 565 935 Q 660 925 770 915 Q 880 905 970 892.5 Q 1060 880 1115 845 Q 1170 810 1125 775 Q 1080 740 1005 726 Q 930 712 855 701 Q 780 690 710 675 Q 640 660 580 644 L 520 628" fill="none" stroke="#b48969" stroke-width="4" stroke-linecap="round" stroke-dasharray="2 16"/><path class="am-draw" d="M 100 945 Q 100 945 190 930 Q 280 915 375 930 L 470 945" fill="none" stroke="#c38b66" stroke-width="11" stroke-linecap="round"/><g transform="translate(100 945)"><ellipse cx="0" cy="3" rx="12" ry="3.5" fill="#2a2016" opacity=".16"/><rect stroke-opacity=".55" x="-4" y="-33" width="8" height="35" rx="2" fill="#866e52" stroke="#715d46" stroke-width="1"/><circle stroke-opacity=".55" cx="0" cy="-56" r="27" fill="#fdfcf8" stroke="#c7c3bd" stroke-width="1.17"/></g><g transform="translate(280 915)"><ellipse cx="0" cy="3" rx="12" ry="3.5" fill="#2a2016" opacity=".16"/><rect stroke-opacity=".55" x="-4" y="-33" width="8" height="35" rx="2" fill="#866e52" stroke="#715d46" stroke-width="1"/><circle stroke-opacity=".55" cx="0" cy="-56" r="27" fill="#fdfcf8" stroke="#c7c3bd" stroke-width="1.17"/></g><circle class="am-next-glow" cx="660" cy="869" r="36" fill="#bf765e" opacity=".3"/><g transform="translate(660 925)"><ellipse cx="0" cy="3" rx="12" ry="3.5" fill="#2a2016" opacity=".16"/><rect stroke-opacity=".55" x="-4" y="-41" width="8" height="43" rx="2" fill="#866e52" stroke="#715d46" stroke-width="1"/><circle stroke-opacity=".55" cx="0" cy="-56" r="19" fill="#f6eae3" stroke="#c2b6ae" stroke-width="1.17"/><text x="0" y="-50" text-anchor="middle" font-family="system-ui,sans-serif" font-weight="800" font-size="17" fill="#b8492f">3</text></g><g transform="translate(880 905)"><ellipse cx="0" cy="3" rx="12" ry="3.5" fill="#2a2016" opacity=".16"/><rect stroke-opacity=".55" x="-4" y="-41" width="8" height="43" rx="2" fill="#866e52" stroke="#715d46" stroke-width="1"/><circle stroke-opacity=".55" cx="0" cy="-56" r="19" fill="#f3eee4" stroke="#bfb9af" stroke-width="1.17"/><text x="0" y="-50" text-anchor="middle" font-family="system-ui,sans-serif" font-weight="800" font-size="17" fill="#9a8a70">4</text></g><g transform="translate(1060 880)"><ellipse cx="0" cy="3" rx="12" ry="3.5" fill="#2a2016" opacity=".16"/><rect stroke-opacity=".55" x="-4" y="-41" width="8" height="43" rx="2" fill="#866e52" stroke="#715d46" stroke-width="1"/><circle stroke-opacity=".55" cx="0" cy="-56" r="19" fill="#f3eee4" stroke="#bfb9af" stroke-width="1.17"/><text x="0" y="-50" text-anchor="middle" font-family="system-ui,sans-serif" font-weight="800" font-size="17" fill="#9a8a70">5</text></g><g transform="translate(1170 810)"><ellipse cx="0" cy="3" rx="12" ry="3.5" fill="#2a2016" opacity=".16"/><rect stroke-opacity=".55" x="-4" y="-41" width="8" height="43" rx="2" fill="#866e52" stroke="#715d46" stroke-width="1"/><circle stroke-opacity=".55" cx="0" cy="-56" r="19" fill="#f3eee4" stroke="#bfb9af" stroke-width="1.17"/><text x="0" y="-50" text-anchor="middle" font-family="system-ui,sans-serif" font-weight="800" font-size="17" fill="#9a8a70">6</text></g><g transform="translate(1080 740)"><ellipse cx="0" cy="3" rx="12" ry="3.5" fill="#2a2016" opacity=".16"/><rect stroke-opacity=".55" x="-4" y="-41" width="8" height="43" rx="2" fill="#866e52" stroke="#715d46" stroke-width="1"/><circle stroke-opacity=".55" cx="0" cy="-56" r="19" fill="#f3eee4" stroke="#bfb9af" stroke-width="1.17"/><text x="0" y="-50" text-anchor="middle" font-family="system-ui,sans-serif" font-weight="800" font-size="17" fill="#9a8a70">7</text></g><g transform="translate(930 712)"><ellipse cx="0" cy="3" rx="12" ry="3.5" fill="#2a2016" opacity=".16"/><rect stroke-opacity=".55" x="-4" y="-41" width="8" height="43" rx="2" fill="#866e52" stroke="#715d46" stroke-width="1"/><circle stroke-opacity=".55" cx="0" cy="-56" r="19" fill="#f3eee4" stroke="#bfb9af" stroke-width="1.17"/><text x="0" y="-50" text-anchor="middle" font-family="system-ui,sans-serif" font-weight="800" font-size="17" fill="#9a8a70">8</text></g><g transform="translate(780 690)"><ellipse cx="0" cy="3" rx="12" ry="3.5" fill="#2a2016" opacity=".16"/><rect stroke-opacity=".55" x="-4" y="-41" width="8" height="43" rx="2" fill="#866e52" stroke="#715d46" stroke-width="1"/><circle stroke-opacity=".55" cx="0" cy="-56" r="19" fill="#f3eee4" stroke="#bfb9af" stroke-width="1.17"/><text x="0" y="-50" text-anchor="middle" font-family="system-ui,sans-serif" font-weight="800" font-size="17" fill="#9a8a70">9</text></g><g transform="translate(640 660)"><ellipse cx="0" cy="3" rx="12" ry="3.5" fill="#2a2016" opacity=".16"/><rect stroke-opacity=".55" x="-4" y="-41" width="8" height="43" rx="2" fill="#866e52" stroke="#715d46" stroke-width="1"/><circle stroke-opacity=".55" cx="0" cy="-56" r="19" fill="#f3eee4" stroke="#bfb9af" stroke-width="1.17"/><text x="0" y="-50" text-anchor="middle" font-family="system-ui,sans-serif" font-weight="800" font-size="17" fill="#9a8a70">10</text></g><g transform="translate(520 634) scale(.8)"><path d="M-30,0 L-18,-120 L18,-120 L30,0" fill="none" stroke="#7b6349" stroke-width="7" stroke-linejoin="round"/><path d="M-26,-30 L22,-60 M26,-30 L-22,-60 M-22,-70 L18,-100 M22,-70 L-18,-100" stroke="#7b6349" stroke-width="4"/><path stroke-opacity=".55" d="M-30,-120 L30,-120 L24,-150 L-24,-150 Z" fill="#b68666" stroke="#946e54" stroke-width="1.17" stroke-linejoin="round" stroke-linecap="round"/><path stroke-opacity=".55" d="M-34,-150 L0,-178 L34,-150 Z" fill="#835b47" stroke="#6f503e" stroke-width="1.17" stroke-linejoin="round" stroke-linecap="round"/><path d="M0,-178 L0,-206" stroke="#6b5642" stroke-width="2.4"/><path stroke-opacity=".55" d="M0,-206 L26,-198 L0,-190 Z" fill="#bf765e" stroke="#9a634e" stroke-width="1" stroke-linejoin="round" stroke-linecap="round"/></g></g><svg x="70" y="858" width="60" height="62" viewBox="0 0 120 124" xmlns="http://www.w3.org/2000/svg" shape-rendering="geometricPrecision"><g style="filter:drop-shadow(0 3px 4px rgba(40,30,15,.18))"><circle cx="60" cy="62" r="52" fill="#fdfaf3"/><circle cx="60" cy="60" r="44" fill="#edf0e7" stroke="#92ab84" stroke-width="3"/></g><g transform="translate(60 61) scale(.92)"><path stroke-opacity=".55" d="M-18,24 Q-22,-8 10,-28 Q20,-10 6,10 Q-6,22 -18,24 Z" fill="#6a958a" stroke="#5d796e" stroke-width="1.17" stroke-linejoin="round" stroke-linecap="round" /><path d="M-18,24 Q-4,4 10,-24" fill="none" stroke="#6b5642" stroke-width="1.76" stroke-linecap="round" stroke-linejoin="round"/><path d="M-8,6 L2,2 M-12,14 L-2,12 M-2,-6 L8,-10" fill="none" stroke="#6b5642" stroke-width="1.6" stroke-linecap="round" stroke-linejoin="round"/></g></svg><svg x="250" y="828" width="60" height="62" viewBox="0 0 120 124" xmlns="http://www.w3.org/2000/svg" shape-rendering="geometricPrecision"><g style="filter:drop-shadow(0 3px 4px rgba(40,30,15,.18))"><rect x="8" y="10" width="104" height="104" rx="30" fill="#fdfaf3"/><rect x="16" y="16" width="88" height="88" rx="24" fill="#f4eddf" stroke="#c69e6f" stroke-width="3"/></g><g transform="translate(60 61) scale(.92)"><circle stroke-opacity=".55" cx="0" cy="0" r="28" fill="#c69e6f" stroke="#9f805b" stroke-width="1.17"/><circle stroke-opacity=".55" cx="0" cy="0" r="21" fill="#f8f4ec" stroke="#c3beb5" stroke-width="1"/><path stroke-opacity=".55" d="M0,-16 L5,0 L0,16 L-5,0 Z" fill="#f8f4ec" stroke="#c3beb5" stroke-width="1.17" stroke-linejoin="round" stroke-linecap="round" /><path stroke-opacity=".55" d="M0,-16 L5,0 L-5,0 Z" fill="#bf765e" stroke="#9a634e" stroke-width="1.17" stroke-linejoin="round" stroke-linecap="round" /><circle r="2.6" fill="#3b3226"/><rect stroke-opacity=".55" x="-5" y="-34" width="10" height="6" rx="2" fill="#c69e6f" stroke="#9f805b" stroke-width="1.17"/></g></svg><svg x="358" y="769" width="140" height="182" viewBox="0 0 200 260" preserveAspectRatio="xMidYMax meet" xmlns="http://www.w3.org/2000/svg" shape-rendering="geometricPrecision"><defs><filter id="eghl" x="0" y="0" width="100%" height="100%"><feTurbulence type="fractalNoise" baseFrequency=".85" numOctaves="1" seed="3" result="g"/><feColorMatrix in="g" type="matrix" values="0 0 0 0 .5  0 0 0 0 .42  0 0 0 0 .3  0 0 0 0.06 0" result="gc"/><feComposite in="gc" in2="SourceGraphic" operator="in" result="gi"/><feMerge><feMergeNode in="SourceGraphic"/><feMergeNode in="gi"/></feMerge></filter></defs><g filter="url(#eghl)"><ellipse cx="102" cy="248" rx="54" ry="8" fill="#2a2016" opacity=".16"/><path stroke-opacity=".55" d="M52,116 Q52,104 64,104 L86,104 Q96,104 96,116 L96,176 Q96,184 88,184 L60,184 Q52,184 52,176 Z" fill="#60825c" stroke="#566c4d" stroke-width="1.44" stroke-linejoin="round" stroke-linecap="round" /><path stroke-opacity=".55" d="M56,144 L92,144 L92,166 Q92,170 88,170 L60,170 Q56,170 56,166 Z" fill="#537451" stroke="#4c6245" stroke-width="1.44" stroke-linejoin="round" stroke-linecap="round" /><rect stroke-opacity=".55" x="70" y="150" width="7" height="9" rx="2" fill="#e3caa2" stroke="#b49f7f" stroke-width="1"/><path d="M90,128 Q80,146 78,164" fill="none" stroke="#b4907a" stroke-width="14" stroke-opacity=".5" stroke-linecap="round" stroke-linejoin="round"/><path d="M90,128 Q80,146 78,164" fill="none" stroke="#dec3a1" stroke-width="12" stroke-linecap="round" stroke-linejoin="round" /><circle stroke-opacity=".55" cx="78" cy="166" r="7" fill="#e0bd9b" stroke="#b2967a" stroke-width="1.44"/><path d="M90,126 Q84,136 83,140" fill="none" stroke="#5f765c" stroke-width="17" stroke-opacity=".5" stroke-linecap="round" stroke-linejoin="round"/><path d="M90,126 Q84,136 83,140" fill="none" stroke="#708a70" stroke-width="15" stroke-linecap="round" stroke-linejoin="round" /><path d="M94,176 Q90,204 86,230" fill="none" stroke="#b4907a" stroke-width="17" stroke-opacity=".5" stroke-linecap="round" stroke-linejoin="round"/><path d="M94,176 Q90,204 86,230" fill="none" stroke="#dec3a1" stroke-width="15" stroke-linecap="round" stroke-linejoin="round" /><path stroke-opacity=".55" d="M77,223 L93,223 L94,234 Q106,236 106,242 L106,245 L76,245 Z" fill="#565238" stroke="#4e4933" stroke-width="1.44" stroke-linejoin="round" stroke-linecap="round" /><path d="M76,240 L106,240" fill="none" stroke="#6b5642" stroke-width="1.76" stroke-linecap="round" stroke-linejoin="round" /><path d="M82,228 L90,228" fill="none" stroke="#e3caa2" stroke-width="1.8" stroke-linecap="round" stroke-linejoin="round" /><path d="M112,176 Q118,204 122,228" fill="none" stroke="#b4907a" stroke-width="17" stroke-opacity=".5" stroke-linecap="round" stroke-linejoin="round"/><path d="M112,176 Q118,204 122,228" fill="none" stroke="#dec3a1" stroke-width="15" stroke-linecap="round" stroke-linejoin="round" /><path stroke-opacity=".55" d="M113,221 L129,221 L130,232 Q142,234 142,240 L142,243 L112,243 Z" fill="#565238" stroke="#4e4933" stroke-width="1.44" stroke-linejoin="round" stroke-linecap="round" /><path d="M112,238 L142,238" fill="none" stroke="#6b5642" stroke-width="1.76" stroke-linecap="round" stroke-linejoin="round" /><path d="M118,226 L126,226" fill="none" stroke="#e3caa2" stroke-width="1.8" stroke-linecap="round" stroke-linejoin="round" /><path stroke-opacity=".55" d="M80,168 L126,168 L130,196 L112,198 L104,184 L98,198 L78,196 Z" fill="#76634f" stroke="#655544" stroke-width="1.44" stroke-linejoin="round" stroke-linecap="round" /><path stroke-opacity=".55" d="M80,118 Q80,108 92,108 L114,108 Q128,108 128,120 L130,176 Q130,182 124,182 L84,182 Q78,182 78,176 Z" fill="#6e8b6e" stroke="#60725a" stroke-width="1.44" stroke-linejoin="round" stroke-linecap="round" /><path d="M94,110 Q104,120 114,110" fill="none" stroke="#6b5642" stroke-width="1.92" stroke-linecap="round" stroke-linejoin="round" /><path stroke-opacity=".55" d="M88,110 L122,110 L106,128 Z" fill="#bf765e" stroke="#9a634e" stroke-width="1.44" stroke-linejoin="round" stroke-linecap="round" /><circle cx="100" cy="115" r="1.6" fill="#fdfaf3"/><circle cx="110" cy="115" r="1.6" fill="#fdfaf3"/><path d="M86,112 Q92,140 90,176" fill="none" stroke="#537451" stroke-width="6" stroke-linecap="round" stroke-linejoin="round" /><path d="M120,126 Q134,140 146,150" fill="none" stroke="#b4907a" stroke-width="14" stroke-opacity=".5" stroke-linecap="round" stroke-linejoin="round"/><path d="M120,126 Q134,140 146,150" fill="none" stroke="#dec3a1" stroke-width="12" stroke-linecap="round" stroke-linejoin="round" /><path d="M120,124 Q126,130 129,134" fill="none" stroke="#5f765c" stroke-width="17" stroke-opacity=".5" stroke-linecap="round" stroke-linejoin="round"/><path d="M120,124 Q126,130 129,134" fill="none" stroke="#708a70" stroke-width="15" stroke-linecap="round" stroke-linejoin="round" /><circle stroke-opacity=".55" cx="147" cy="150" r="7.5" fill="#e0bd9b" stroke="#b2967a" stroke-width="1.44"/><circle stroke-opacity=".55" cx="70" cy="84" r="10" fill="#e0bd9b" stroke="#b2967a" stroke-width="1.44"/><circle stroke-opacity=".55" cx="104" cy="78" r="44" fill="#e0bd9b" stroke="#b2967a" stroke-width="1.44"/><ellipse cx="116" cy="80" rx="4.6" ry="5.6" fill="#241c16"/><circle cx="117.6" cy="78" r="1.6" fill="#fdfaf3"/><ellipse cx="136" cy="80" rx="4.2" ry="5.2" fill="#241c16"/><circle cx="137.4" cy="78" r="1.5" fill="#fdfaf3"/><circle cx="108" cy="96" r="7" fill="#d5987f" opacity=".45"/><circle cx="143" cy="94" r="5.5" fill="#d5987f" opacity=".45"/><path d="M121,99 Q128,106 136,99" fill="none" stroke="#6b5642" stroke-width="2.08" stroke-linecap="round" stroke-linejoin="round" /><path d="M146,84 Q150,88 146,91" fill="none" stroke="#ae8670" stroke-width="2.4" stroke-linecap="round" stroke-linejoin="round" /><path stroke-opacity=".55" d="M60,84 Q54,34 104,32 Q150,32 150,70 Q138,58 120,60 Q124,50 112,48 Q100,62 80,62 Q72,70 70,86 Q64,86 60,84 Z" fill="#565236" stroke="#4e4932" stroke-width="1.44" stroke-linejoin="round" stroke-linecap="round" /><g transform="translate(0 0)"><path stroke-opacity=".55" d="M44,52 Q104,34 168,50 Q170,60 160,60 Q104,48 50,62 Q40,62 44,52 Z" fill="#d2b184" stroke="#a88d6a" stroke-width="1.44" stroke-linejoin="round" stroke-linecap="round" /><path stroke-opacity=".55" d="M70,50 Q70,14 106,14 Q140,14 140,48 Q106,40 70,50 Z" fill="#e1c89d" stroke="#b39e7c" stroke-width="1.44" stroke-linejoin="round" stroke-linecap="round" /><path stroke-opacity=".55" d="M71,44 Q106,34 139,42 L139,49 Q106,41 71,50 Z" fill="#6e8b6e" stroke="#60725a" stroke-width="1.08"/></g></g></svg><svg x="460" y="785" width="124" height="162" viewBox="0 0 200 260" preserveAspectRatio="xMidYMax meet" xmlns="http://www.w3.org/2000/svg" shape-rendering="geometricPrecision"><defs><filter id="eghe" x="0" y="0" width="100%" height="100%"><feTurbulence type="fractalNoise" baseFrequency=".85" numOctaves="1" seed="3" result="g"/><feColorMatrix in="g" type="matrix" values="0 0 0 0 .5  0 0 0 0 .42  0 0 0 0 .3  0 0 0 0.06 0" result="gc"/><feComposite in="gc" in2="SourceGraphic" operator="in" result="gi"/><feMerge><feMergeNode in="SourceGraphic"/><feMergeNode in="gi"/></feMerge></filter></defs><g filter="url(#eghe)"><ellipse cx="102" cy="248" rx="54" ry="8" fill="#2a2016" opacity=".16"/><path d="M90,128 Q80,146 78,164" fill="none" stroke="#bfa183" stroke-width="14" stroke-opacity=".5" stroke-linecap="round" stroke-linejoin="round"/><path d="M90,128 Q80,146 78,164" fill="none" stroke="#e5caaa" stroke-width="12" stroke-linecap="round" stroke-linejoin="round" /><circle stroke-opacity=".55" cx="78" cy="166" r="7" fill="#e9caa8" stroke="#b89f84" stroke-width="1.44"/><path d="M90,126 Q84,136 83,140" fill="none" stroke="#8e725e" stroke-width="17" stroke-opacity=".5" stroke-linecap="round" stroke-linejoin="round"/><path d="M90,126 Q84,136 83,140" fill="none" stroke="#b88774" stroke-width="15" stroke-linecap="round" stroke-linejoin="round" /><path d="M94,176 Q90,204 86,230" fill="none" stroke="#bfa183" stroke-width="17" stroke-opacity=".5" stroke-linecap="round" stroke-linejoin="round"/><path d="M94,176 Q90,204 86,230" fill="none" stroke="#e5caaa" stroke-width="15" stroke-linecap="round" stroke-linejoin="round" /><path stroke-opacity=".55" d="M77,232 Q76,244 86,244 L98,244 Q102,237 94,232 Z" fill="#e9caa8" stroke="#b89f84" stroke-width="1.44" stroke-linejoin="round" stroke-linecap="round" /><path d="M112,176 Q118,204 122,228" fill="none" stroke="#bfa183" stroke-width="17" stroke-opacity=".5" stroke-linecap="round" stroke-linejoin="round"/><path d="M112,176 Q118,204 122,228" fill="none" stroke="#e5caaa" stroke-width="15" stroke-linecap="round" stroke-linejoin="round" /><path stroke-opacity=".55" d="M113,230 Q112,242 122,242 L134,242 Q138,235 130,230 Z" fill="#e9caa8" stroke="#b89f84" stroke-width="1.44" stroke-linejoin="round" stroke-linecap="round" /><path stroke-opacity=".55" d="M80,168 L126,168 L130,196 L112,198 L104,184 L98,198 L78,196 Z" fill="#76634f" stroke="#655544" stroke-width="1.44" stroke-linejoin="round" stroke-linecap="round" /><path stroke-opacity=".55" d="M80,118 Q80,108 92,108 L114,108 Q128,108 128,120 L130,176 Q130,182 124,182 L84,182 Q78,182 78,176 Z" fill="#bc8671" stroke="#986e5c" stroke-width="1.44" stroke-linejoin="round" stroke-linecap="round" /><path d="M94,110 Q104,120 114,110" fill="none" stroke="#6b5642" stroke-width="1.92" stroke-linecap="round" stroke-linejoin="round" /><path d="M146,118 L150,238" fill="none" stroke="#786550" stroke-width="7" stroke-opacity=".5" stroke-linecap="round" stroke-linejoin="round"/><path d="M146,118 L150,238" fill="none" stroke="#857058" stroke-width="5" stroke-linecap="round" stroke-linejoin="round" /><path d="M120,126 Q134,140 146,150" fill="none" stroke="#bfa183" stroke-width="14" stroke-opacity=".5" stroke-linecap="round" stroke-linejoin="round"/><path d="M120,126 Q134,140 146,150" fill="none" stroke="#e5caaa" stroke-width="12" stroke-linecap="round" stroke-linejoin="round" /><path d="M120,124 Q126,130 129,134" fill="none" stroke="#8e725e" stroke-width="17" stroke-opacity=".5" stroke-linecap="round" stroke-linejoin="round"/><path d="M120,124 Q126,130 129,134" fill="none" stroke="#b88774" stroke-width="15" stroke-linecap="round" stroke-linejoin="round" /><circle stroke-opacity=".55" cx="147" cy="150" r="7.5" fill="#e9caa8" stroke="#b89f84" stroke-width="1.44"/><path stroke-opacity=".55" d="M66,70 Q46,86 52,122 Q56,136 70,130 Q64,108 78,86 Z" fill="#3b2a1c" stroke="#3b2c1f" stroke-width="1.44" stroke-linejoin="round" stroke-linecap="round" /><circle stroke-opacity=".55" cx="68" cy="72" r="7" fill="#bf765e" stroke="#9a634e" stroke-width="1.08"/><circle stroke-opacity=".55" cx="70" cy="84" r="10" fill="#e9caa8" stroke="#b89f84" stroke-width="1.44"/><circle stroke-opacity=".55" cx="104" cy="78" r="44" fill="#e9caa8" stroke="#b89f84" stroke-width="1.44"/><ellipse cx="116" cy="80" rx="4.6" ry="5.6" fill="#241c16"/><circle cx="117.6" cy="78" r="1.6" fill="#fdfaf3"/><ellipse cx="136" cy="80" rx="4.2" ry="5.2" fill="#241c16"/><circle cx="137.4" cy="78" r="1.5" fill="#fdfaf3"/><circle cx="108" cy="96" r="7" fill="#d5987f" opacity=".45"/><circle cx="143" cy="94" r="5.5" fill="#d5987f" opacity=".45"/><path d="M121,99 Q128,106 136,99" fill="none" stroke="#6b5642" stroke-width="2.08" stroke-linecap="round" stroke-linejoin="round" /><path d="M146,84 Q150,88 146,91" fill="none" stroke="#b48f7a" stroke-width="2.4" stroke-linecap="round" stroke-linejoin="round" /><path stroke-opacity=".55" d="M60,84 Q54,34 104,32 Q150,32 150,70 Q138,58 120,60 Q124,50 112,48 Q100,62 80,62 Q72,70 70,86 Q64,86 60,84 Z" fill="#3b2a1c" stroke="#3b2c1f" stroke-width="1.44" stroke-linejoin="round" stroke-linecap="round" /><g transform="translate(0 0)"><path stroke-opacity=".55" d="M44,52 Q104,34 168,50 Q170,60 160,60 Q104,48 50,62 Q40,62 44,52 Z" fill="#d2b184" stroke="#a88d6a" stroke-width="1.44" stroke-linejoin="round" stroke-linecap="round" /><path stroke-opacity=".55" d="M70,50 Q70,14 106,14 Q140,14 140,48 Q106,40 70,50 Z" fill="#e1c89d" stroke="#b39e7c" stroke-width="1.44" stroke-linejoin="round" stroke-linecap="round" /><path stroke-opacity=".55" d="M71,44 Q106,34 139,42 L139,49 Q106,41 71,50 Z" fill="#bc8671" stroke="#986e5c" stroke-width="1.08"/></g></g></svg></svg>